<svg width="17" height="16" viewBox="0 0 17 16" fill="none" xmlns="http://www.w3.org/2000/svg">
<path d="M11.8332 1.33321C12.7165 1.33585 13.5629 1.68791 14.1875 2.31251C14.8121 2.9371 15.1641 3.78348 15.1668 4.66679V11.3332C15.1641 12.2165 14.8121 13.0629 14.1875 13.6875C13.5629 14.3121 12.7165 14.6641 11.8332 14.6668H5.16679C4.28348 14.6641 3.4371 14.3121 2.81251 13.6875C2.18791 13.0629 1.83585 12.2165 1.83321 11.3332V4.66679C1.83585 3.78348 2.18791 2.9371 2.81251 2.31251C3.4371 1.68791 4.28348 1.33585 5.16679 1.33321H11.8332ZM11.8332 0H5.16679C2.6 0 0.5 2.1 0.5 4.66679V11.3332C0.5 13.9 2.6 16 5.16679 16H11.8332C14.4 16 16.5 13.9 16.5 11.3332V4.66679C16.5 2.1 14.4 0 11.8332 0Z" fill="#F5F5F5"/>
<path d="M12.8333 4.66687C12.6355 4.66687 12.4421 4.60822 12.2777 4.49834C12.1132 4.38846 11.9851 4.23228 11.9094 4.04955C11.8337 3.86683 11.8139 3.66576 11.8525 3.47178C11.8911 3.2778 11.9863 3.09962 12.1261 2.95976C12.266 2.81991 12.4442 2.72467 12.6382 2.68609C12.8321 2.6475 13.0332 2.6673 13.2159 2.74299C13.3987 2.81868 13.5548 2.94685 13.6647 3.1113C13.7746 3.27575 13.8333 3.46909 13.8333 3.66687C13.8335 3.79827 13.8079 3.92843 13.7577 4.04989C13.7076 4.17134 13.6339 4.28169 13.541 4.37461C13.4481 4.46752 13.3377 4.54117 13.2163 4.59133C13.0948 4.64148 12.9647 4.66715 12.8333 4.66687Z" fill="#F5F5F5"/>
<path d="M8.5 5.33321C9.02744 5.33321 9.54304 5.48962 9.98159 5.78265C10.4201 6.07568 10.7619 6.49217 10.9638 6.97947C11.1656 7.46676 11.2184 8.00296 11.1155 8.52026C11.0126 9.03757 10.7587 9.51275 10.3857 9.8857C10.0127 10.2587 9.53757 10.5126 9.02027 10.6155C8.50296 10.7184 7.96676 10.6656 7.47947 10.4638C6.99218 10.2619 6.57568 9.92014 6.28265 9.48159C5.98962 9.04304 5.83322 8.52744 5.83322 8C5.83397 7.29296 6.11518 6.61509 6.61513 6.11513C7.11509 5.61518 7.79296 5.33397 8.5 5.33321ZM8.5 4C7.70888 4 6.93552 4.2346 6.27772 4.67412C5.61992 5.11365 5.10723 5.73836 4.80448 6.46927C4.50173 7.20017 4.42252 8.00444 4.57686 8.78036C4.7312 9.55629 5.11216 10.269 5.67157 10.8284C6.23098 11.3878 6.94372 11.7688 7.71964 11.9231C8.49556 12.0775 9.29983 11.9983 10.0307 11.6955C10.7616 11.3928 11.3864 10.8801 11.8259 10.2223C12.2654 9.56449 12.5 8.79113 12.5 8C12.5 6.93913 12.0786 5.92172 11.3284 5.17157C10.5783 4.42143 9.56087 4 8.5 4Z" fill="#F5F5F5"/>
</svg>
