<svg width="20" height="20" viewBox="0 0 20 20" fill="none" xmlns="http://www.w3.org/2000/svg">
<path d="M17.9593 4.95548C17.4299 5.18352 16.8734 5.34231 16.3035 5.42794C16.5699 5.38221 16.962 4.90214 17.1181 4.70783C17.3552 4.41472 17.5359 4.08011 17.651 3.72101C17.651 3.69434 17.6776 3.65624 17.651 3.63719C17.6376 3.62985 17.6225 3.626 17.6072 3.626C17.5919 3.626 17.5769 3.62985 17.5634 3.63719C16.9446 3.97264 16.2859 4.22866 15.603 4.39921C15.5792 4.40648 15.5539 4.40714 15.5298 4.4011C15.5056 4.39505 15.4836 4.38255 15.466 4.36492C15.4129 4.30156 15.3556 4.24175 15.2947 4.18584C15.0162 3.93607 14.7002 3.73164 14.3583 3.58003C13.8968 3.39051 13.3982 3.30843 12.9004 3.34C12.4173 3.37053 11.9456 3.50023 11.5148 3.72101C11.0905 3.95378 10.7176 4.27 10.4185 4.65067C10.1039 5.04249 9.87672 5.49719 9.75233 5.98421C9.64976 6.44746 9.63812 6.92625 9.71807 7.39395C9.71807 7.47396 9.71807 7.48539 9.64955 7.47396C6.93546 7.0739 4.70861 6.10994 2.88906 4.04106C2.80912 3.94961 2.76725 3.94961 2.70254 4.04106C1.91077 5.24505 2.29524 7.1501 3.28495 8.0912C3.41818 8.21693 3.55521 8.33886 3.69986 8.45316C3.24609 8.42091 2.80339 8.29783 2.39801 8.0912C2.32188 8.04167 2.28001 8.06834 2.2762 8.15978C2.26541 8.28656 2.26541 8.41402 2.2762 8.54079C2.35563 9.14835 2.59484 9.72389 2.96938 10.2086C3.34392 10.6932 3.84034 11.0697 4.40789 11.2993C4.54624 11.3586 4.6904 11.4033 4.83803 11.4327C4.41795 11.5154 3.9871 11.5283 3.56283 11.4708C3.47147 11.4517 3.43721 11.5012 3.47147 11.5889C4.03104 13.1129 5.24534 13.5778 6.13608 13.8368C6.25789 13.8559 6.3797 13.8559 6.51673 13.8864C6.51673 13.8864 6.51673 13.8864 6.49389 13.9092C6.23124 14.3893 5.1692 14.7132 4.68196 14.8808C3.79262 15.2006 2.84441 15.3228 1.90316 15.239C1.7547 15.2161 1.72044 15.2199 1.68238 15.239C1.64431 15.258 1.68238 15.2999 1.72425 15.338C1.91458 15.4638 2.10491 15.5743 2.30285 15.6809C2.89212 16.0026 3.51511 16.2582 4.16046 16.443C7.50264 17.365 11.2635 16.6868 13.7721 14.1912C15.7439 12.2328 16.4367 9.53142 16.4367 6.82624C16.4367 6.72337 16.5623 6.66241 16.6346 6.60907C17.1335 6.22002 17.5733 5.76055 17.9403 5.24505C18.0038 5.16821 18.0364 5.07037 18.0316 4.97072C18.0316 4.91357 18.0316 4.925 17.9593 4.95548Z" fill="#CFCFCF"/>
</svg>
